<mxfile host="app.diagrams.net" agent="Mozilla/5.0 (Windows NT 10.0; Win64; x64) AppleWebKit/537.36 (KHTML, like Gecko) Chrome/128.0.0.0 YaBrowser/24.10.0.0 Safari/537.36" version="24.8.6">
  <diagram name="Страница — 1" id="68Ra-yuhluBioR6QkyjW">
    <mxGraphModel dx="1615" dy="885" grid="1" gridSize="10" guides="1" tooltips="1" connect="1" arrows="1" fold="1" page="1" pageScale="1" pageWidth="1000" pageHeight="1169" math="0" shadow="0">
      <root>
        <mxCell id="0" />
        <mxCell id="1" parent="0" />
        <mxCell id="PabgDgXi73IDbwlfuN_j-29" value="" style="rounded=0;whiteSpace=wrap;html=1;" vertex="1" parent="1">
          <mxGeometry x="190" y="480" width="700" height="530" as="geometry" />
        </mxCell>
        <mxCell id="PabgDgXi73IDbwlfuN_j-1" value="" style="rounded=0;whiteSpace=wrap;html=1;" vertex="1" parent="1">
          <mxGeometry x="200" y="75" width="400" height="280" as="geometry" />
        </mxCell>
        <mxCell id="PabgDgXi73IDbwlfuN_j-2" value="" style="rounded=1;whiteSpace=wrap;html=1;arcSize=7;fillColor=#f5f5f5;fontColor=#333333;strokeColor=#666666;" vertex="1" parent="1">
          <mxGeometry x="280" y="110" width="240" height="210" as="geometry" />
        </mxCell>
        <mxCell id="PabgDgXi73IDbwlfuN_j-3" value="Авторизация" style="text;html=1;align=center;verticalAlign=middle;whiteSpace=wrap;rounded=0;" vertex="1" parent="1">
          <mxGeometry x="370" y="110" width="60" height="30" as="geometry" />
        </mxCell>
        <mxCell id="PabgDgXi73IDbwlfuN_j-4" value="&lt;div&gt;&lt;br&gt;&lt;/div&gt;" style="swimlane;fontStyle=0;childLayout=stackLayout;horizontal=1;startSize=0;horizontalStack=0;resizeParent=1;resizeParentMax=0;resizeLast=0;collapsible=1;marginBottom=0;whiteSpace=wrap;html=1;" vertex="1" parent="1">
          <mxGeometry x="330" y="140" width="140" height="120" as="geometry">
            <mxRectangle x="330" y="170" width="60" height="30" as="alternateBounds" />
          </mxGeometry>
        </mxCell>
        <mxCell id="PabgDgXi73IDbwlfuN_j-5" value="Админ" style="text;align=left;verticalAlign=middle;spacingLeft=4;spacingRight=4;overflow=hidden;points=[[0,0.5],[1,0.5]];portConstraint=eastwest;rotatable=0;whiteSpace=wrap;html=1;" vertex="1" parent="PabgDgXi73IDbwlfuN_j-4">
          <mxGeometry width="140" height="30" as="geometry" />
        </mxCell>
        <mxCell id="PabgDgXi73IDbwlfuN_j-7" value="Служба производства" style="text;strokeColor=none;fillColor=none;align=left;verticalAlign=middle;spacingLeft=4;spacingRight=4;overflow=hidden;points=[[0,0.5],[1,0.5]];portConstraint=eastwest;rotatable=0;whiteSpace=wrap;html=1;" vertex="1" parent="PabgDgXi73IDbwlfuN_j-4">
          <mxGeometry y="30" width="140" height="30" as="geometry" />
        </mxCell>
        <mxCell id="PabgDgXi73IDbwlfuN_j-8" value="Служба технолого" style="text;strokeColor=none;fillColor=none;align=left;verticalAlign=middle;spacingLeft=4;spacingRight=4;overflow=hidden;points=[[0,0.5],[1,0.5]];portConstraint=eastwest;rotatable=0;whiteSpace=wrap;html=1;" vertex="1" parent="PabgDgXi73IDbwlfuN_j-4">
          <mxGeometry y="60" width="140" height="30" as="geometry" />
        </mxCell>
        <mxCell id="PabgDgXi73IDbwlfuN_j-6" value="Коммерческая служба" style="text;strokeColor=none;fillColor=none;align=left;verticalAlign=middle;spacingLeft=4;spacingRight=4;overflow=hidden;points=[[0,0.5],[1,0.5]];portConstraint=eastwest;rotatable=0;whiteSpace=wrap;html=1;" vertex="1" parent="PabgDgXi73IDbwlfuN_j-4">
          <mxGeometry y="90" width="140" height="30" as="geometry" />
        </mxCell>
        <mxCell id="PabgDgXi73IDbwlfuN_j-9" value="Войти" style="rounded=1;whiteSpace=wrap;html=1;" vertex="1" parent="1">
          <mxGeometry x="340" y="270" width="120" height="20" as="geometry" />
        </mxCell>
        <mxCell id="PabgDgXi73IDbwlfuN_j-24" value="&lt;div&gt;&lt;br&gt;&lt;/div&gt;" style="swimlane;horizontal=0;whiteSpace=wrap;html=1;startSize=0;" vertex="1" parent="1">
          <mxGeometry x="200" y="930" width="420" height="50" as="geometry" />
        </mxCell>
        <mxCell id="PabgDgXi73IDbwlfuN_j-25" value="Пользователи" style="rounded=1;whiteSpace=wrap;html=1;" vertex="1" parent="PabgDgXi73IDbwlfuN_j-24">
          <mxGeometry x="10" y="10" width="90" height="30" as="geometry" />
        </mxCell>
        <mxCell id="PabgDgXi73IDbwlfuN_j-26" value="Лесопродукция" style="rounded=1;whiteSpace=wrap;html=1;" vertex="1" parent="PabgDgXi73IDbwlfuN_j-24">
          <mxGeometry x="110" y="10" width="90" height="30" as="geometry" />
        </mxCell>
        <mxCell id="PabgDgXi73IDbwlfuN_j-27" value="Клиенты" style="rounded=1;whiteSpace=wrap;html=1;" vertex="1" parent="PabgDgXi73IDbwlfuN_j-24">
          <mxGeometry x="210" y="10" width="90" height="30" as="geometry" />
        </mxCell>
        <mxCell id="PabgDgXi73IDbwlfuN_j-28" value="Заказы" style="rounded=1;whiteSpace=wrap;html=1;" vertex="1" parent="PabgDgXi73IDbwlfuN_j-24">
          <mxGeometry x="310" y="10" width="90" height="30" as="geometry" />
        </mxCell>
        <mxCell id="PabgDgXi73IDbwlfuN_j-41" value="" style="rounded=0;whiteSpace=wrap;html=1;fillColor=#f5f5f5;fontColor=#333333;strokeColor=#666666;" vertex="1" parent="1">
          <mxGeometry x="200" y="490" width="680" height="440" as="geometry" />
        </mxCell>
        <mxCell id="PabgDgXi73IDbwlfuN_j-42" value="&lt;div&gt;&lt;br&gt;&lt;/div&gt;" style="swimlane;horizontal=0;whiteSpace=wrap;html=1;startSize=0;" vertex="1" parent="1">
          <mxGeometry x="250" y="500" width="620" height="90" as="geometry" />
        </mxCell>
        <mxCell id="PabgDgXi73IDbwlfuN_j-43" value="id" style="text;html=1;align=center;verticalAlign=middle;whiteSpace=wrap;rounded=0;strokeWidth=1;strokeColor=default;" vertex="1" parent="PabgDgXi73IDbwlfuN_j-42">
          <mxGeometry width="60" height="30" as="geometry" />
        </mxCell>
        <mxCell id="PabgDgXi73IDbwlfuN_j-44" value="Дата регистрации" style="text;html=1;align=center;verticalAlign=middle;whiteSpace=wrap;rounded=0;strokeColor=default;" vertex="1" parent="PabgDgXi73IDbwlfuN_j-42">
          <mxGeometry x="60" width="80" height="30" as="geometry" />
        </mxCell>
        <mxCell id="PabgDgXi73IDbwlfuN_j-45" value="Дата выпуска" style="text;html=1;align=center;verticalAlign=middle;whiteSpace=wrap;rounded=0;strokeColor=default;" vertex="1" parent="PabgDgXi73IDbwlfuN_j-42">
          <mxGeometry x="140" width="80" height="30" as="geometry" />
        </mxCell>
        <mxCell id="PabgDgXi73IDbwlfuN_j-46" value="id клиента" style="text;html=1;align=center;verticalAlign=middle;whiteSpace=wrap;rounded=0;strokeColor=default;" vertex="1" parent="PabgDgXi73IDbwlfuN_j-42">
          <mxGeometry x="220" width="80" height="30" as="geometry" />
        </mxCell>
        <mxCell id="PabgDgXi73IDbwlfuN_j-47" value="id лесопродукции" style="text;html=1;align=center;verticalAlign=middle;whiteSpace=wrap;rounded=0;strokeColor=default;" vertex="1" parent="PabgDgXi73IDbwlfuN_j-42">
          <mxGeometry x="300" width="90" height="30" as="geometry" />
        </mxCell>
        <mxCell id="PabgDgXi73IDbwlfuN_j-48" value="Количество" style="text;html=1;align=center;verticalAlign=middle;whiteSpace=wrap;rounded=0;strokeColor=default;" vertex="1" parent="PabgDgXi73IDbwlfuN_j-42">
          <mxGeometry x="390" width="80" height="30" as="geometry" />
        </mxCell>
        <mxCell id="PabgDgXi73IDbwlfuN_j-49" value="Информация" style="text;html=1;align=center;verticalAlign=middle;whiteSpace=wrap;rounded=0;strokeColor=default;" vertex="1" parent="PabgDgXi73IDbwlfuN_j-42">
          <mxGeometry x="470" width="80" height="30" as="geometry" />
        </mxCell>
        <mxCell id="PabgDgXi73IDbwlfuN_j-50" value="Статус" style="text;html=1;align=center;verticalAlign=middle;whiteSpace=wrap;rounded=0;strokeColor=default;" vertex="1" parent="PabgDgXi73IDbwlfuN_j-42">
          <mxGeometry x="550" width="70" height="30" as="geometry" />
        </mxCell>
        <mxCell id="PabgDgXi73IDbwlfuN_j-60" value="5" style="text;html=1;align=center;verticalAlign=middle;whiteSpace=wrap;rounded=0;strokeColor=default;" vertex="1" parent="PabgDgXi73IDbwlfuN_j-42">
          <mxGeometry x="220" y="30" width="80" height="30" as="geometry" />
        </mxCell>
        <mxCell id="PabgDgXi73IDbwlfuN_j-67" value="Ифно" style="text;html=1;align=center;verticalAlign=middle;whiteSpace=wrap;rounded=0;strokeColor=default;" vertex="1" parent="PabgDgXi73IDbwlfuN_j-42">
          <mxGeometry x="470" y="30" width="80" height="30" as="geometry" />
        </mxCell>
        <mxCell id="PabgDgXi73IDbwlfuN_j-94" value="Ифно" style="text;html=1;align=center;verticalAlign=middle;whiteSpace=wrap;rounded=0;strokeColor=default;" vertex="1" parent="PabgDgXi73IDbwlfuN_j-42">
          <mxGeometry x="470" y="60" width="80" height="30" as="geometry" />
        </mxCell>
        <mxCell id="PabgDgXi73IDbwlfuN_j-51" value="" style="swimlane;horizontal=0;whiteSpace=wrap;html=1;startSize=0;" vertex="1" parent="1">
          <mxGeometry x="210" y="530" width="660" height="30" as="geometry" />
        </mxCell>
        <mxCell id="PabgDgXi73IDbwlfuN_j-53" value="У" style="rounded=1;whiteSpace=wrap;html=1;" vertex="1" parent="PabgDgXi73IDbwlfuN_j-51">
          <mxGeometry x="20" y="5" width="20" height="20" as="geometry" />
        </mxCell>
        <mxCell id="PabgDgXi73IDbwlfuN_j-54" value="1" style="text;html=1;align=center;verticalAlign=middle;whiteSpace=wrap;rounded=0;strokeColor=default;" vertex="1" parent="PabgDgXi73IDbwlfuN_j-51">
          <mxGeometry x="40" width="60" height="30" as="geometry" />
        </mxCell>
        <mxCell id="PabgDgXi73IDbwlfuN_j-59" value="18.11.24" style="text;html=1;align=center;verticalAlign=middle;whiteSpace=wrap;rounded=0;strokeColor=default;" vertex="1" parent="PabgDgXi73IDbwlfuN_j-51">
          <mxGeometry x="180" width="80" height="30" as="geometry" />
        </mxCell>
        <mxCell id="PabgDgXi73IDbwlfuN_j-65" value="18.11.24" style="text;html=1;align=center;verticalAlign=middle;whiteSpace=wrap;rounded=0;strokeColor=default;" vertex="1" parent="PabgDgXi73IDbwlfuN_j-51">
          <mxGeometry x="340" width="90" height="30" as="geometry" />
        </mxCell>
        <mxCell id="PabgDgXi73IDbwlfuN_j-66" value="10" style="text;html=1;align=center;verticalAlign=middle;whiteSpace=wrap;rounded=0;strokeColor=default;" vertex="1" parent="PabgDgXi73IDbwlfuN_j-51">
          <mxGeometry x="430" width="80" height="30" as="geometry" />
        </mxCell>
        <mxCell id="PabgDgXi73IDbwlfuN_j-58" value="16.11.24" style="text;html=1;align=center;verticalAlign=middle;whiteSpace=wrap;rounded=0;strokeColor=default;" vertex="1" parent="PabgDgXi73IDbwlfuN_j-51">
          <mxGeometry x="100" width="80" height="30" as="geometry" />
        </mxCell>
        <mxCell id="PabgDgXi73IDbwlfuN_j-52" value="Р" style="rounded=1;whiteSpace=wrap;html=1;" vertex="1" parent="1">
          <mxGeometry x="210" y="535" width="20" height="20" as="geometry" />
        </mxCell>
        <mxCell id="PabgDgXi73IDbwlfuN_j-80" value="Черновик" style="text;html=1;align=center;verticalAlign=middle;whiteSpace=wrap;rounded=0;strokeColor=default;" vertex="1" parent="1">
          <mxGeometry x="800" y="530" width="70" height="30" as="geometry" />
        </mxCell>
        <mxCell id="PabgDgXi73IDbwlfuN_j-87" value="" style="swimlane;horizontal=0;whiteSpace=wrap;html=1;startSize=0;" vertex="1" parent="1">
          <mxGeometry x="210" y="560" width="660" height="35" as="geometry" />
        </mxCell>
        <mxCell id="PabgDgXi73IDbwlfuN_j-88" value="У" style="rounded=1;whiteSpace=wrap;html=1;" vertex="1" parent="PabgDgXi73IDbwlfuN_j-87">
          <mxGeometry x="20" y="5" width="20" height="20" as="geometry" />
        </mxCell>
        <mxCell id="PabgDgXi73IDbwlfuN_j-89" value="2" style="text;html=1;align=center;verticalAlign=middle;whiteSpace=wrap;rounded=0;strokeColor=default;" vertex="1" parent="PabgDgXi73IDbwlfuN_j-87">
          <mxGeometry x="40" width="60" height="30" as="geometry" />
        </mxCell>
        <mxCell id="PabgDgXi73IDbwlfuN_j-90" value="20.11.24" style="text;html=1;align=center;verticalAlign=middle;whiteSpace=wrap;rounded=0;strokeColor=default;" vertex="1" parent="PabgDgXi73IDbwlfuN_j-87">
          <mxGeometry x="180" width="80" height="30" as="geometry" />
        </mxCell>
        <mxCell id="PabgDgXi73IDbwlfuN_j-91" value="18.12.24" style="text;html=1;align=center;verticalAlign=middle;whiteSpace=wrap;rounded=0;strokeColor=default;" vertex="1" parent="PabgDgXi73IDbwlfuN_j-87">
          <mxGeometry x="340" width="90" height="30" as="geometry" />
        </mxCell>
        <mxCell id="PabgDgXi73IDbwlfuN_j-92" value="5" style="text;html=1;align=center;verticalAlign=middle;whiteSpace=wrap;rounded=0;strokeColor=default;" vertex="1" parent="PabgDgXi73IDbwlfuN_j-87">
          <mxGeometry x="430" width="80" height="30" as="geometry" />
        </mxCell>
        <mxCell id="PabgDgXi73IDbwlfuN_j-93" value="19.11.24" style="text;html=1;align=center;verticalAlign=middle;whiteSpace=wrap;rounded=0;strokeColor=default;" vertex="1" parent="PabgDgXi73IDbwlfuN_j-87">
          <mxGeometry x="100" width="80" height="30" as="geometry" />
        </mxCell>
        <mxCell id="PabgDgXi73IDbwlfuN_j-95" value="Черновик" style="text;html=1;align=center;verticalAlign=middle;whiteSpace=wrap;rounded=0;strokeColor=default;" vertex="1" parent="PabgDgXi73IDbwlfuN_j-87">
          <mxGeometry x="590" width="70" height="30" as="geometry" />
        </mxCell>
        <mxCell id="PabgDgXi73IDbwlfuN_j-104" value="10" style="text;html=1;align=center;verticalAlign=middle;whiteSpace=wrap;rounded=0;strokeColor=default;" vertex="1" parent="PabgDgXi73IDbwlfuN_j-87">
          <mxGeometry x="260" width="80" height="30" as="geometry" />
        </mxCell>
        <mxCell id="PabgDgXi73IDbwlfuN_j-105" value="Р" style="rounded=1;whiteSpace=wrap;html=1;" vertex="1" parent="PabgDgXi73IDbwlfuN_j-87">
          <mxGeometry y="5" width="20" height="20" as="geometry" />
        </mxCell>
        <mxCell id="PabgDgXi73IDbwlfuN_j-106" value="&lt;font style=&quot;font-size: 12px;&quot;&gt;Добавить строку&lt;/font&gt;" style="rounded=1;whiteSpace=wrap;html=1;arcSize=21;" vertex="1" parent="1">
          <mxGeometry x="630" y="943.75" width="120" height="22.5" as="geometry" />
        </mxCell>
        <mxCell id="PabgDgXi73IDbwlfuN_j-107" value="Сохранить в бд" style="rounded=1;whiteSpace=wrap;html=1;" vertex="1" parent="1">
          <mxGeometry x="760" y="943.75" width="90" height="20" as="geometry" />
        </mxCell>
        <mxCell id="PabgDgXi73IDbwlfuN_j-108" value="&lt;font color=&quot;#ff0000&quot;&gt;Ошибка:в поле &quot;дата регистрации&quot; должна содержать формат даты&lt;/font&gt;" style="text;html=1;align=center;verticalAlign=middle;whiteSpace=wrap;rounded=0;" vertex="1" parent="1">
          <mxGeometry x="200" y="980" width="410" height="30" as="geometry" />
        </mxCell>
        <mxCell id="PabgDgXi73IDbwlfuN_j-109" value="" style="endArrow=classic;html=1;rounded=0;exitX=0.5;exitY=1;exitDx=0;exitDy=0;entryX=0.5;entryY=0;entryDx=0;entryDy=0;" edge="1" parent="1" source="PabgDgXi73IDbwlfuN_j-9" target="PabgDgXi73IDbwlfuN_j-29">
          <mxGeometry width="50" height="50" relative="1" as="geometry">
            <mxPoint x="360" y="410" as="sourcePoint" />
            <mxPoint x="410" y="360" as="targetPoint" />
          </mxGeometry>
        </mxCell>
      </root>
    </mxGraphModel>
  </diagram>
</mxfile>
